HIERARCHY
ROOT Hips
{
	OFFSET 0.000000 0.000000 0.000000
	CHANNELS 6 Xposition Yposition Zposition Zrotation Yrotation Xrotation 
	JOINT LowerBack
	{
		OFFSET 0.000000 0.000000 0.000000
		CHANNELS 3 Zrotation Yrotation Xrotation
		JOINT Spine
		{
			OFFSET 0.028270 2.035590 -0.193380
			CHANNELS 3 Zrotation Yrotation Xrotation
			JOINT Spine1
			{
				OFFSET 0.056720 2.048850 -0.042750
				CHANNELS 3 Zrotation Yrotation Xrotation
				JOINT Neck
				{
					OFFSET 0.000000 0.000000 0.000000
					CHANNELS 3 Zrotation Yrotation Xrotation
					JOINT Neck1
					{
						OFFSET -0.054170 1.746240 0.172020
						CHANNELS 3 Zrotation Yrotation Xrotation
						JOINT Head
						{
							OFFSET 0.104070 1.761360 -0.123970
							CHANNELS 3 Zrotation Yrotation Xrotation
							End Site
							{
								OFFSET 0.000000 0.000000 0.000000
							}
						}
					}
				}
				JOINT LeftShoulder
				{
					OFFSET 0.000000 0.000000 0.000000
					CHANNELS 3 Zrotation Yrotation Xrotation
					JOINT LeftArm
					{
						OFFSET 3.362410 1.200890 -0.311210
						CHANNELS 3 Zrotation Yrotation Xrotation
						JOINT LeftForeArm
						{
							OFFSET 4.983000 -0.000000 -0.000000
							CHANNELS 3 Zrotation Yrotation Xrotation
							JOINT LeftHand
							{
								OFFSET 3.483560 -0.000000 -0.000000
								CHANNELS 3 Zrotation Yrotation Xrotation
								JOINT LeftFingerBase
								{
									OFFSET 0.000000 0.000000 0.000000
									CHANNELS 3 Zrotation Yrotation Xrotation
									JOINT LeftHandIndex1
									{
										OFFSET 0.715260 -0.000000 -0.000000
										CHANNELS 3 Zrotation Yrotation Xrotation
										End Site
										{
											OFFSET 0.000000 0.000000 0.000000
										}
									}
								}
								JOINT LThumb
								{
									OFFSET 0.000000 0.000000 0.000000
									CHANNELS 3 Zrotation Yrotation Xrotation
									End Site
									{
										OFFSET 0.000000 0.000000 0.000000
									}
								}
							}
						}
					}
				}
				JOINT RightShoulder
				{
					OFFSET 0.000000 0.000000 0.000000
					CHANNELS 3 Zrotation Yrotation Xrotation
					JOINT RightArm
					{
						OFFSET -3.136600 1.374050 -0.404650
						CHANNELS 3 Zrotation Yrotation Xrotation
						JOINT RightForeArm
						{
							OFFSET -5.241900 -0.000000 -0.000000
							CHANNELS 3 Zrotation Yrotation Xrotation
							JOINT RightHand
							{
								OFFSET -3.444170 -0.000000 -0.000000
								CHANNELS 3 Zrotation Yrotation Xrotation
								JOINT RightFingerBase
								{
									OFFSET 0.000000 0.000000 0.000000
									CHANNELS 3 Zrotation Yrotation Xrotation
									JOINT RightHandIndex1
									{
										OFFSET -0.622530 -0.000000 -0.000000
										CHANNELS 3 Zrotation Yrotation Xrotation
										End Site
										{
											OFFSET 0.000000 0.000000 0.000000
										}
									}
								}
								JOINT RThumb
								{
									OFFSET 0.000000 0.000000 0.000000
									CHANNELS 3 Zrotation Yrotation Xrotation
									End Site
									{
										OFFSET 0.000000 0.000000 0.000000
									}
								}
							}
						}
					}
				}
			}
		}
	}
}
}
MOTION
Frames: 9
Frame Time: 0.008333
2.609564 16.759298 -3.134811 108.334285 -77.205521 -112.868774 -14.218105 0.199972 11.374151 -3.574148 0.830008 -1.478713 -6.997443 0.813739 -2.002202 10.573023 1.164583 -1.945104 -4.258318 -0.349099 1.102432 0.000000 0.000000 0.000000 -7.114665 1.592609 2.155710 -66.779284 3.271281 5.086399 -3.307888 -27.915435 0.002203 2.305765 -1.473397 -0.029221 -0.025764 -0.029484 -0.000000 0.000000 0.000000 0.000000 0.000000 0.000000 0.000000 18.496449 4.088866 1.548105 67.690521 14.894290 -9.017297 2.233825 15.950861 -0.001893 -5.238836 9.614949 -0.451540 0.056418 -0.133599 0.000000 0.000000 0.000000 0.000000 0.000000 0.000000 0.000000 
2.629234 16.766231 -3.135588 108.799013 -77.079204 -113.500094 -14.198756 0.202845 11.215770 -3.563839 0.842710 -1.494442 -6.981008 0.826685 -1.929259 10.581630 1.162601 -2.036525 -4.251667 -0.348054 1.082605 0.000000 0.000000 0.000000 -7.221312 2.224625 2.122062 -67.156355 2.879094 4.484693 -3.355750 -27.365674 0.001979 1.807663 -1.480617 -0.023117 -0.027863 -0.028305 -0.000000 0.000000 0.000000 0.000000 0.000000 0.000000 0.000000 18.490338 4.168026 1.477532 68.056149 15.038705 -9.497871 2.235947 15.657327 -0.001803 -5.134165 9.540899 -0.439141 0.056099 -0.133835 0.000000 0.000000 0.000000 0.000000 0.000000 0.000000 0.000000 
2.650124 16.772715 -3.138119 109.207013 -76.934622 -114.193752 -14.206753 0.208671 11.185214 -3.560215 0.855427 -1.486758 -6.963043 0.841306 -1.877801 10.590246 1.109992 -2.145889 -4.245005 -0.346767 1.056822 0.000000 0.000000 0.000000 -7.266979 2.756277 2.097279 -67.530482 2.574267 3.965194 -3.387282 -26.830496 0.001857 1.534829 -1.496037 -0.019814 -0.029095 -0.027126 -0.000000 0.000000 0.000000 0.000000 0.000000 0.000000 0.000000 18.492217 4.206987 1.421218 68.441814 15.174057 -9.721073 2.237448 15.488208 -0.001693 -5.000767 9.462734 -0.424340 0.055608 -0.134282 0.000000 0.000000 0.000000 0.000000 0.000000 0.000000 0.000000 
2.671472 16.779344 -3.141874 109.514028 -76.786576 -114.856593 -14.225626 0.215379 11.241939 -3.561725 0.865532 -1.463469 -6.945220 0.854124 -1.851211 10.595951 1.013137 -2.259731 -4.239396 -0.345516 1.029376 0.000000 0.000000 0.000000 -7.264497 3.145479 2.082198 -67.889687 2.398784 3.543891 -3.401893 -26.340869 0.001813 1.463590 -1.512954 -0.019216 -0.029434 -0.026144 -0.000000 0.000000 0.000000 0.000000 0.000000 0.000000 0.000000 18.500950 4.205194 1.379478 68.841645 15.267200 -9.704511 2.239416 15.461375 -0.001533 -4.831671 9.390889 -0.407037 0.054918 -0.134905 0.000000 0.000000 0.000000 0.000000 0.000000 0.000000 0.000000 
2.692563 16.786734 -3.146136 109.648961 -76.662881 -115.358828 -14.229546 0.215156 11.336922 -3.563445 0.865492 -1.433236 -6.928848 0.857042 -1.842521 10.596577 0.866272 -2.375142 -4.235767 -0.344444 1.001828 0.000000 0.000000 0.000000 -7.227808 3.393620 2.075160 -68.223717 2.339525 3.250384 -3.402614 -25.888364 0.001825 1.558365 -1.530103 -0.020620 -0.029060 -0.025392 -0.000000 0.000000 0.000000 0.000000 0.000000 0.000000 0.000000 18.517728 4.146569 1.347919 69.244566 15.308595 -9.446832 2.244209 15.577897 -0.001289 -4.629864 9.335786 -0.387832 0.054146 -0.135584 0.000000 0.000000 0.000000 0.000000 0.000000 0.000000 0.000000 
2.712508 16.795497 -3.150271 109.570640 -76.594205 -115.609110 -14.188546 0.200106 11.427431 -3.558570 0.848353 -1.403351 -6.914843 0.842775 -1.840913 10.590396 0.659702 -2.493430 -4.234562 -0.343602 0.974596 0.000000 0.000000 0.000000 -7.171242 3.523461 2.072763 -68.526277 2.362623 3.107570 -3.393969 -25.449700 0.001878 1.773779 -1.547660 -0.023826 -0.028246 -0.024847 -0.000000 0.000000 0.000000 0.000000 0.000000 0.000000 0.000000 18.543155 4.011745 1.320718 69.637187 15.300265 -8.943835 2.254685 15.825983 -0.000927 -4.403260 9.305459 -0.367824 0.053481 -0.136188 0.000000 0.000000 0.000000 0.000000 0.000000 0.000000 0.000000 
2.730457 16.806376 -3.153846 109.235233 -76.601879 -115.522731 -14.085822 0.163812 11.477104 -3.543065 0.808740 -1.381620 -6.904563 0.805435 -1.844086 10.578305 0.404611 -2.606231 -4.236306 -0.343145 0.950526 0.000000 0.000000 0.000000 -7.106020 3.532591 2.074191 -68.792375 2.470419 3.104403 -3.380003 -25.023518 0.001954 2.055831 -1.560065 -0.027733 -0.027195 -0.024550 -0.000000 0.000000 0.000000 0.000000 0.000000 0.000000 0.000000 18.577728 3.804297 1.295105 70.012179 15.221044 -8.241222 2.271229 16.200911 -0.000438 -4.149679 9.303302 -0.346713 0.052903 -0.136622 0.000000 0.000000 0.000000 0.000000 0.000000 0.000000 0.000000 
2.745831 16.819714 -3.156694 108.653828 -76.690037 -115.098533 -13.913626 0.105677 11.468585 -3.514504 0.746844 -1.370800 -6.898080 0.745152 -1.844443 10.561383 0.102439 -2.713901 -4.240840 -0.343065 0.929762 0.000000 0.000000 0.000000 -7.038098 3.452967 2.076005 -69.022698 2.628557 3.232315 -3.365481 -24.585195 0.002038 2.353347 -1.565987 -0.031840 -0.026181 -0.024472 -0.000000 0.000000 0.000000 0.000000 0.000000 0.000000 0.000000 18.621839 3.523534 1.266962 70.362068 15.073133 -7.369474 2.294343 16.681850 0.000177 -3.874562 9.329393 -0.324899 0.052472 -0.136808 0.000000 0.000000 0.000000 0.000000 0.000000 0.000000 0.000000 
2.758066 16.835840 -3.158812 107.847733 -76.843941 -114.357562 -13.684248 0.028987 11.392885 -3.475088 0.666309 -1.372576 -6.895213 0.665469 -1.839466 10.542345 -0.235494 -2.813108 -4.247868 -0.343382 0.913093 0.000000 0.000000 0.000000 -6.967840 3.304054 2.076044 -69.220475 2.824048 3.461038 -3.354102 -24.125391 0.002124 2.619444 -1.561450 -0.035346 -0.025386 -0.024635 -0.000000 0.000000 0.000000 0.000000 0.000000 0.000000 0.000000 18.675989 3.182380 1.234607 70.684998 14.850189 -6.383710 2.322616 17.250531 0.000900 -3.578072 9.378280 -0.301783 0.052123 -0.136697 0.000000 0.000000 0.000000 0.000000 0.000000 0.000000 0.000000 
